<svg width="499" height="397" viewBox="0 0 499 397" fill="none" xmlns="http://www.w3.org/2000/svg">
<rect width="499" height="397" fill="#1E1E1E"/>
<rect x="59.1975" y="0.771988" width="439.522" height="395.43" transform="rotate(0.104181 59.1975 0.771988)" fill="#1EA7E2"/>
<ellipse cx="104.5" cy="71" rx="104.5" ry="70" fill="#1EA7E2"/>
<path d="M198.58 184.455C198.153 180.856 196.425 178.062 193.395 176.074C190.365 174.085 186.648 173.091 182.244 173.091C179.025 173.091 176.207 173.612 173.793 174.653C171.402 175.695 169.531 177.127 168.182 178.95C166.856 180.773 166.193 182.845 166.193 185.165C166.193 187.106 166.655 188.775 167.578 190.172C168.525 191.545 169.732 192.693 171.2 193.616C172.668 194.516 174.207 195.262 175.817 195.854C177.427 196.422 178.906 196.884 180.256 197.239L187.642 199.227C189.536 199.724 191.643 200.411 193.963 201.287C196.307 202.163 198.544 203.358 200.675 204.874C202.829 206.365 204.605 208.283 206.001 210.626C207.398 212.97 208.097 215.847 208.097 219.256C208.097 223.186 207.067 226.737 205.007 229.909C202.971 233.081 199.988 235.603 196.058 237.473C192.152 239.343 187.405 240.278 181.818 240.278C176.61 240.278 172.1 239.438 168.288 237.757C164.5 236.076 161.518 233.732 159.339 230.726C157.185 227.719 155.966 224.227 155.682 220.25H164.773C165.009 222.996 165.933 225.269 167.543 227.068C169.176 228.844 171.236 230.17 173.722 231.045C176.231 231.898 178.93 232.324 181.818 232.324C185.18 232.324 188.198 231.779 190.874 230.69C193.549 229.578 195.668 228.039 197.23 226.074C198.793 224.085 199.574 221.765 199.574 219.114C199.574 216.699 198.899 214.734 197.55 213.219C196.2 211.704 194.425 210.473 192.223 209.526C190.021 208.579 187.642 207.75 185.085 207.04L176.136 204.483C170.455 202.849 165.956 200.518 162.642 197.487C159.328 194.457 157.67 190.491 157.67 185.591C157.67 181.519 158.771 177.968 160.973 174.938C163.198 171.884 166.181 169.516 169.922 167.835C173.686 166.131 177.888 165.278 182.528 165.278C187.216 165.278 191.383 166.119 195.028 167.8C198.674 169.457 201.563 171.73 203.693 174.618C205.848 177.506 206.984 180.785 207.102 184.455H198.58ZM231.383 166.273V239H222.576V166.273H231.383ZM249.041 166.273H259.553L284.268 226.642H285.121L309.837 166.273H320.348V239H312.109V183.744H311.399L288.672 239H280.717L257.99 183.744H257.28V239H249.041V166.273ZM338.006 239V166.273H381.898V174.085H346.813V198.659H379.625V206.472H346.813V231.188H382.466V239H338.006Z" fill="white"/>
</svg>
